Exact Audio Copy V0.99 prebeta 4 from 23. January 2008

EAC extraction logfile from 16. January 2010, 7:37

Satyricon / Dark Medieval Times (FOG-001)

Used drive  : HL-DT-STDVDRAM GH22NS50   Adapter: 2  ID: 0

Read mode               : Secure
Utilize accurate stream : Yes
Defeat audio cache      : Yes
Make use of C2 pointers : No

Read offset correction                      : 667
Overread into Lead-In and Lead-Out          : No
Fill up missing offset samples with silence : Yes
Delete leading and trailing silent blocks   : No
Null samples used in CRC calculations       : No
Used interface                              : Native Win32 interface for Win NT & 2000

Used output format              : User Defined Encoder
Selected bitrate                : 1024 kBit/s
Quality                         : High
Add ID3 tag                     : No
Command line compressor         : C:\Program Files\Exact Audio Copy\FLAC\FLAC.EXE
Additional command line options : -6 -V -T "ARTIST=%a" -T "TITLE=%t" -T "ALBUM=%g" -T "DATE=%y" -T "TRACKNUMBER=%n" -T "GENRE=%m" -T "COMMENT=%e" %s -o %d


TOC of the extracted CD

     Track |   Start  |  Length  | Start sector | End sector 
    ---------------------------------------------------------
        1  |  0:00.00 |  8:18.42 |         0    |    37391   
        2  |  8:18.42 |  8:11.43 |     37392    |    74259   
        3  | 16:30.10 |  3:55.60 |     74260    |    91944   
        4  | 20:25.70 |  4:29.30 |     91945    |   112149   
        5  | 24:55.25 |  6:18.60 |    112150    |   140559   
        6  | 31:14.10 |  6:22.70 |    140560    |   169279   
        7  | 37:37.05 |  5:54.35 |    169280    |   195864   


Range status and errors

Selected range

     Filename C:\Documents and Settings\Owner\Desktop\Flac's\Satyricon - Dark Medieval Times (Original 1st Press - FOG-001)\Satyricon - Dark Medieval Times (FOG-001).wav

     Peak level 97.7 %
     Range quality 100.0 %
     Copy CRC 3CCAB0FC
     Copy OK

No errors occurred

 
AccurateRip summary
 
Track  1  accurately ripped (confidence 11)  [CE88454A]
Track  2  accurately ripped (confidence 11)  [A346BF6C]
Track  3  accurately ripped (confidence 11)  [A64B240E]
Track  4  accurately ripped (confidence 11)  [9AC21390]
Track  5  accurately ripped (confidence 11)  [E3A295C1]
Track  6  accurately ripped (confidence 11)  [E4F616D7]
Track  7  accurately ripped (confidence 11)  [2F21557B]
 
All tracks accurately ripped

End of status report
